# xmcd
#
# Track frame offsets:
#	150
#	13495
#	43494
#
# Disc length: 3654 seconds
#
# Revision: 1
# Processed by: cddbd v1.5.1PL0 Copyright (c) Steve Scherf et al.
# Submitted via: dBpowerAMP V4.0
#
DISCID=280e4403
DTITLE=Anita Cochran - Good Times
DYEAR=1900
DGENRE=Country
TTITLE0=Good Times
TTITLE1=Girls Like Fast Cars
TTITLE2=DATA
EXTD=also,this sampler was provided to me through gm goodwrench plus when i worked at a pontiac dealer.sorry about forgetting to put this in the last submission
EXTT0=
EXTT1=
EXTT2=
PLAYORDER=
